<?xml version="1.0" standalone="no"?><!DOCTYPE svg PUBLIC "-//W3C//DTD SVG 1.1//EN" "http://www.w3.org/Graphics/SVG/1.1/DTD/svg11.dtd"><svg t="1561605346461" class="icon" viewBox="0 0 1024 1024" version="1.1" xmlns="http://www.w3.org/2000/svg" p-id="1982" xmlns:xlink="http://www.w3.org/1999/xlink" width="200" height="200"><defs><style type="text/css"></style></defs><path d="M512 126.784c-211.744 0-384 172.768-384 385.184s172.256 385.184 384 385.184c211.744 0 384-172.768 384-385.184S723.744 126.784 512 126.784zM762.144 394.56l-267.616 268.384c-15.168 14.048-32.736 21.024-51.84 21.024-1.632 0-3.264-0.064-4.896-0.16-28.32-1.824-45.76-20.96-51.52-27.264L260.16 508.96c-11.488-13.44-9.888-33.632 3.552-45.12 13.408-11.392 33.632-9.92 45.12 3.552l125.44 146.816c3.008 3.264 5.984 5.632 7.52 5.728 3.584 0.224 5.632-0.576 8.352-3.104l266.688-267.456c12.512-12.544 32.736-12.512 45.248-0.064C774.624 361.792 774.624 382.048 762.144 394.56z" p-id="1983" fill="#d4c72d"></path></svg>